<svg width="94" height="94" viewBox="0 0 94 94" fill="none" xmlns="http://www.w3.org/2000/svg">
<g clip-path="url(#clip0_120_525)">
<path d="M47 0C29.4094 0 15.0981 14.311 15.0981 31.9017C15.0981 38.9705 19.2598 49.7209 28.1953 65.7334C34.2927 76.6593 40.362 85.8879 40.6181 86.2766L45.0049 92.9259C45.4471 93.5965 46.1965 94 47 94C47.8035 94 48.5529 93.5965 48.9952 92.9259L53.3818 86.277C53.6354 85.8927 59.6605 76.7438 65.8047 65.7334C74.7402 49.7216 78.9019 38.9713 78.9019 31.9017C78.9019 14.311 64.5907 0 47 0ZM61.6304 63.4038C55.5716 74.2602 49.6417 83.2655 49.3918 83.6439L47 87.2693L44.609 83.6449C44.3578 83.2634 38.3824 74.1774 32.3697 63.4038C24.0812 48.5506 19.8786 37.9517 19.8786 31.9017C19.8786 16.947 32.0452 4.78048 47 4.78048C61.9549 4.78048 74.1214 16.947 74.1214 31.9017C74.1214 37.9525 69.9188 48.551 61.6304 63.4038Z" fill="#F46D40"/>
<path d="M47 14.0146C37.2469 14.0146 29.3123 21.9495 29.3123 31.7024C29.3123 41.4554 37.2469 49.3902 47 49.3902C56.7532 49.3902 64.6878 41.4554 64.6878 31.7024C64.6878 21.9495 56.7532 14.0146 47 14.0146ZM47 44.6097C39.8829 44.6097 34.0927 38.8196 34.0927 31.7024C34.0927 24.5853 39.8829 18.7951 47 18.7951C54.1174 18.7951 59.9074 24.5853 59.9074 31.7024C59.9074 38.8196 54.1174 44.6097 47 44.6097Z" fill="#F46D40"/>
</g>
<defs>
<clipPath id="clip0_120_525">
<rect width="94" height="94" fill="white"/>
</clipPath>
</defs>
</svg>
