<svg width="15" height="16" viewBox="0 0 15 16" fill="none" xmlns="http://www.w3.org/2000/svg">
<path d="M7.49999 2.94565C7.67934 2.94565 7.82608 2.79891 7.82608 2.61956V2.45652C7.82608 2.27717 7.67934 2.13043 7.49999 2.13043C7.32064 2.13043 7.1739 2.27717 7.1739 2.45652V2.61956C7.1739 2.79891 7.32064 2.94565 7.49999 2.94565Z" fill="#FF9846"/>
<path d="M7.49999 13.0544C7.32064 13.0544 7.1739 13.2011 7.1739 13.3804V13.5435C7.1739 13.7228 7.32064 13.8696 7.49999 13.8696C7.67934 13.8696 7.82608 13.7228 7.82608 13.5435V13.3804C7.82608 13.2011 7.67934 13.0544 7.49999 13.0544Z" fill="#FF9846"/>
<path d="M2.11956 7.67391H1.95652C1.77717 7.67391 1.63043 7.82065 1.63043 8C1.63043 8.17935 1.77717 8.32609 1.95652 8.32609H2.11956C2.29891 8.32609 2.44565 8.17935 2.44565 8C2.44565 7.82065 2.29891 7.67391 2.11956 7.67391Z" fill="#FF9846"/>
<path d="M13.0435 7.67391H12.8804C12.7011 7.67391 12.5543 7.82065 12.5543 8C12.5543 8.17935 12.7011 8.32609 12.8804 8.32609H13.0435C13.2228 8.32609 13.3696 8.17935 13.3696 8C13.3696 7.82065 13.2228 7.67391 13.0435 7.67391Z" fill="#FF9846"/>
<path d="M3.81521 3.8587C3.68478 3.72826 3.48913 3.72826 3.35869 3.8587C3.22826 3.98913 3.22826 4.18479 3.35869 4.31522L3.47282 4.42935C3.53804 4.49457 3.61956 4.52718 3.70108 4.52718C3.7826 4.52718 3.86413 4.49457 3.92934 4.42935C4.05978 4.29892 4.05978 4.10326 3.92934 3.97283L3.81521 3.8587Z" fill="#FF9846"/>
<path d="M3.47282 11.5707L3.35869 11.6848C3.22826 11.8152 3.22826 12.0109 3.35869 12.1413C3.42391 12.2065 3.50543 12.2391 3.58695 12.2391C3.66847 12.2391 3.74999 12.2065 3.81521 12.1413L3.92934 12.0272C4.05978 11.8967 4.05978 11.7011 3.92934 11.5707C3.79891 11.4402 3.60326 11.4402 3.47282 11.5707Z" fill="#FF9846"/>
<path d="M11.1848 3.8587L11.0707 3.97283C10.9402 4.10326 10.9402 4.29892 11.0707 4.42935C11.1359 4.49457 11.2174 4.52718 11.2989 4.52718C11.3804 4.52718 11.462 4.49457 11.5272 4.42935L11.6413 4.31522C11.7718 4.18479 11.7718 3.98913 11.6413 3.8587C11.5109 3.72826 11.3152 3.72826 11.1848 3.8587Z" fill="#FF9846"/>
<path d="M7.82608 7.86957V4.90218C7.82608 4.72283 7.67934 4.57609 7.49999 4.57609C7.32064 4.57609 7.1739 4.72283 7.1739 4.90218V8C7.1739 8.08152 7.20651 8.16305 7.27173 8.22826L10.8424 11.7989C10.9076 11.8641 10.9891 11.8967 11.0706 11.8967C11.1522 11.8967 11.2337 11.8641 11.2989 11.7989C11.4293 11.6685 11.4293 11.4728 11.2989 11.3424L7.82608 7.86957Z" fill="#FF9846"/>
<path d="M7.5 0.5C3.3587 0.5 0 3.8587 0 8C0 12.1413 3.3587 15.5 7.5 15.5C11.6413 15.5 15 12.1413 15 8C15 3.8587 11.6413 0.5 7.5 0.5ZM7.5 14.8478C3.71739 14.8478 0.652174 11.7826 0.652174 8C0.652174 4.21739 3.71739 1.15217 7.5 1.15217C11.2826 1.15217 14.3478 4.21739 14.3478 8C14.3478 11.7826 11.2826 14.8478 7.5 14.8478Z" fill="#FF9846"/>
</svg>
