<svg width="20" height="20" viewBox="0 0 20 20" fill="none" xmlns="http://www.w3.org/2000/svg">
<path d="M9.99997 3.26079C10.2391 3.26079 10.4348 3.06513 10.4348 2.826V2.60861C10.4348 2.36948 10.2391 2.17383 9.99997 2.17383C9.76084 2.17383 9.56519 2.36948 9.56519 2.60861V2.826C9.56519 3.06513 9.76084 3.26079 9.99997 3.26079Z" fill="white"/>
<path d="M9.99997 16.7391C9.76084 16.7391 9.56519 16.9348 9.56519 17.1739V17.3913C9.56519 17.6304 9.76084 17.8261 9.99997 17.8261C10.2391 17.8261 10.4348 17.6304 10.4348 17.3913V17.1739C10.4348 16.9348 10.2391 16.7391 9.99997 16.7391Z" fill="white"/>
<path d="M2.82625 9.56519H2.60885C2.36972 9.56519 2.17407 9.76084 2.17407 9.99997C2.17407 10.2391 2.36972 10.4347 2.60885 10.4347H2.82625C3.06538 10.4347 3.26103 10.2391 3.26103 9.99997C3.26103 9.76084 3.06538 9.56519 2.82625 9.56519Z" fill="white"/>
<path d="M17.3912 9.56519H17.1738C16.9347 9.56519 16.739 9.76084 16.739 9.99997C16.739 10.2391 16.9347 10.4347 17.1738 10.4347H17.3912C17.6303 10.4347 17.826 10.2391 17.826 9.99997C17.826 9.76084 17.6303 9.56519 17.3912 9.56519Z" fill="white"/>
<path d="M5.08703 4.47834C4.91312 4.30442 4.65225 4.30442 4.47834 4.47834C4.30442 4.65225 4.30442 4.91312 4.47834 5.08703L4.63051 5.23921C4.71747 5.32616 4.82616 5.36964 4.93486 5.36964C5.04355 5.36964 5.15225 5.32616 5.23921 5.23921C5.41312 5.06529 5.41312 4.80442 5.23921 4.63051L5.08703 4.47834Z" fill="white"/>
<path d="M4.63051 14.7609L4.47834 14.9131C4.30442 15.087 4.30442 15.3479 4.47834 15.5218C4.56529 15.6088 4.67399 15.6522 4.78268 15.6522C4.89138 15.6522 5.00007 15.6088 5.08703 15.5218L5.23921 15.3696C5.41312 15.1957 5.41312 14.9348 5.23921 14.7609C5.06529 14.587 4.80442 14.587 4.63051 14.7609Z" fill="white"/>
<path d="M14.913 4.47834L14.7608 4.63051C14.5869 4.80442 14.5869 5.06529 14.7608 5.23921C14.8478 5.32616 14.9565 5.36964 15.0652 5.36964C15.1738 5.36964 15.2825 5.32616 15.3695 5.23921L15.5217 5.08703C15.6956 4.91312 15.6956 4.65225 15.5217 4.47834C15.3478 4.30442 15.0869 4.30442 14.913 4.47834Z" fill="white"/>
<path d="M10.4348 9.82612V5.8696C10.4348 5.63047 10.2391 5.43481 9.99997 5.43481C9.76084 5.43481 9.56519 5.63047 9.56519 5.8696V10C9.56519 10.1087 9.60866 10.2174 9.69562 10.3044L14.4565 15.0653C14.5434 15.1522 14.6521 15.1957 14.7608 15.1957C14.8695 15.1957 14.9782 15.1522 15.0652 15.0653C15.2391 14.8913 15.2391 14.6305 15.0652 14.4566L10.4348 9.82612Z" fill="white"/>
<path d="M10 0C4.47826 0 0 4.47826 0 10C0 15.5217 4.47826 20 10 20C15.5217 20 20 15.5217 20 10C20 4.47826 15.5217 0 10 0ZM10 19.1304C4.95652 19.1304 0.869565 15.0435 0.869565 10C0.869565 4.95652 4.95652 0.869565 10 0.869565C15.0435 0.869565 19.1304 4.95652 19.1304 10C19.1304 15.0435 15.0435 19.1304 10 19.1304Z" fill="white"/>
</svg>
