<svg width="132" height="23" viewBox="0 0 132 23" fill="none" xmlns="http://www.w3.org/2000/svg">
<path d="M10.3 13.96L17.71 22H15.58L8.32 14.05H2.59V22H0.97V0.999999H10.21C12.37 0.999999 14.05 1.65 15.25 2.95C16.47 4.23 17.09 5.76 17.11 7.54C17.13 9.36 16.54 10.89 15.34 12.13C14.16 13.35 12.48 13.96 10.3 13.96ZM2.59 2.5V12.52H10.03C11.79 12.52 13.11 12.07 13.99 11.17C14.87 10.27 15.32 9.05 15.34 7.51C15.36 6.17 14.92 5 14.02 4C13.12 3 11.85 2.5 10.21 2.5H2.59ZM31.2159 0.669999C34.5759 0.669999 37.1859 1.73 39.0459 3.85C40.9059 5.95 41.8259 8.51 41.8059 11.53C41.8059 12.93 41.5759 14.27 41.1159 15.55C40.6559 16.83 39.9959 17.98 39.1359 19C38.2959 20.02 37.1859 20.84 35.8059 21.46C34.4459 22.06 32.9159 22.36 31.2159 22.36C29.5159 22.36 27.9759 22.06 26.5959 21.46C25.2359 20.84 24.1259 20.02 23.2659 19C22.4059 17.96 21.7459 16.8 21.2859 15.52C20.8459 14.24 20.6259 12.89 20.6259 11.47C20.6259 9.53 21.0059 7.76 21.7659 6.16C22.5259 4.56 23.7259 3.25 25.3659 2.23C27.0059 1.19 28.9559 0.669999 31.2159 0.669999ZM31.2159 2.17C28.3359 2.17 26.1059 3.07 24.5259 4.87C22.9659 6.65 22.1959 8.86 22.2159 11.5C22.2359 14.06 23.0359 16.26 24.6159 18.1C26.1959 19.94 28.3959 20.86 31.2159 20.86C33.1359 20.86 34.7959 20.4 36.1959 19.48C37.5959 18.56 38.6159 17.41 39.2559 16.03C39.9159 14.65 40.2459 13.14 40.2459 11.5C40.2459 8.9 39.4559 6.7 37.8759 4.9C36.2959 3.08 34.0759 2.17 31.2159 2.17ZM64.7095 22V3.34L56.6695 15.64H56.1295L48.0295 3.34V22H46.4095V0.999999H48.3295L56.3695 13.24L64.3195 0.999999H66.2995V22H64.7095ZM86.8893 4.27L85.5693 5.05C84.8693 3.93 83.9893 3.18 82.9293 2.8C81.8893 2.42 80.6493 2.22 79.2093 2.2C78.2493 2.2 77.3193 2.31 76.4193 2.53C75.5393 2.75 74.7193 3.2 73.9593 3.88C73.2193 4.56 72.8493 5.42 72.8493 6.46C72.8493 6.98 72.9693 7.44 73.2093 7.84C73.4493 8.24 73.7293 8.57 74.0493 8.83C74.3893 9.07 74.8693 9.3 75.4893 9.52C76.1293 9.74 76.6993 9.91 77.1993 10.03C77.7193 10.13 78.4093 10.26 79.2693 10.42C81.8893 10.92 83.6793 11.41 84.6393 11.89C86.5593 12.83 87.5193 14.35 87.5193 16.45C87.5193 17.57 87.2493 18.54 86.7093 19.36C86.1893 20.16 85.4993 20.77 84.6393 21.19C83.7793 21.59 82.8993 21.88 81.9993 22.06C81.1193 22.24 80.1893 22.33 79.2093 22.33C77.4293 22.33 75.7393 21.95 74.1393 21.19C72.5393 20.41 71.3593 19.27 70.5993 17.77L72.0393 17.05C72.6393 18.25 73.6293 19.19 75.0093 19.87C76.4093 20.53 77.8093 20.86 79.2093 20.86C79.9493 20.86 80.6693 20.8 81.3693 20.68C82.0693 20.56 82.7793 20.35 83.4993 20.05C84.2193 19.75 84.7993 19.29 85.2393 18.67C85.6793 18.05 85.8993 17.3 85.8993 16.42C85.8993 15.92 85.8193 15.47 85.6593 15.07C85.4993 14.65 85.2293 14.29 84.8493 13.99C84.4893 13.69 84.1293 13.44 83.7693 13.24C83.4293 13.04 82.9393 12.85 82.2993 12.67C81.6593 12.49 81.1393 12.36 80.7393 12.28C80.3393 12.18 79.7593 12.06 78.9993 11.92C78.1593 11.76 77.5093 11.63 77.0493 11.53C76.6093 11.43 76.0293 11.28 75.3093 11.08C74.5893 10.86 74.0293 10.63 73.6293 10.39C73.2493 10.15 72.8493 9.85 72.4293 9.49C72.0093 9.13 71.6993 8.7 71.4993 8.2C71.3193 7.7 71.2293 7.14 71.2293 6.52C71.2093 5.46 71.4393 4.54 71.9193 3.76C72.4193 2.96 73.0793 2.35 73.8993 1.93C74.7393 1.51 75.5993 1.2 76.4793 0.999999C77.3593 0.799999 78.2693 0.699999 79.2093 0.699999C80.9493 0.699999 82.4193 0.939999 83.6193 1.42C84.8393 1.9 85.9293 2.85 86.8893 4.27ZM93.5561 2.53V10.69H105.856V12.16H93.5561V20.44H106.816V22H91.9661V0.999999H106.456V2.53H93.5561ZM129.749 22V3.34L121.709 15.64H121.169L113.069 3.34V22H111.449V0.999999H113.369L121.409 13.24L129.359 0.999999H131.339V22H129.749Z" fill="black"/>
</svg>
