<svg width="30" height="31" viewBox="0 0 30 31" fill="none" xmlns="http://www.w3.org/2000/svg">
<path d="M29.8169 29.4331L20.6888 20.305C22.5848 18.1999 23.75 15.4244 23.75 12.375C23.75 5.82717 18.4229 0.5 11.875 0.5C5.32717 0.5 0 5.82717 0 12.375C0 18.9229 5.32717 24.25 11.875 24.25C14.9244 24.25 17.6999 23.0848 19.805 21.1888L28.9331 30.3169C29.0552 30.4389 29.2151 30.5 29.375 30.5C29.5349 30.5 29.6948 30.4389 29.817 30.3169C30.0611 30.0727 30.0611 29.6772 29.8169 29.4331ZM11.875 23C6.01688 23 1.25004 18.2337 1.25004 12.375C1.25004 6.51629 6.01688 1.74998 11.875 1.74998C17.7332 1.74998 22.5 6.51623 22.5 12.375C22.5 18.2338 17.7332 23 11.875 23Z" fill="#A4ACAD"/>
</svg>
